<?xml version="1.0" standalone="no"?>
<!DOCTYPE svg PUBLIC "-//W3C//DTD SVG 20010904//EN"
 "http://www.w3.org/TR/2001/REC-SVG-20010904/DTD/svg10.dtd">
<svg version="1.0" xmlns="http://www.w3.org/2000/svg"
 width="1024.000000pt" height="1024.000000pt" viewBox="0 0 1024.000000 1024.000000"
 preserveAspectRatio="xMidYMid meet">
<metadata>
Created by potrace 1.14, written by Peter Selinger 2001-2017
</metadata>
<g transform="translate(0.000000,1024.000000) scale(0.100000,-0.100000)"
fill="#000000" stroke="none">
<path d="M1226 10168 c-4 -29 -11 -271 -16 -538 -19 -943 19 -1853 111 -2650
336 -2915 1411 -5043 3345 -6626 115 -94 421 -330 450 -347 20 -12 361 251
684 527 202 173 672 638 844 836 710 814 1235 1700 1624 2740 563 1506 816
3323 772 5525 -5 253 -12 488 -15 523 l-7 62 -3893 0 -3894 0 -5 -52z m2898
-1220 c-39 -77 -90 -214 -114 -304 -39 -152 -51 -251 -60 -508 -17 -463 -66
-737 -161 -917 -67 -125 -221 -260 -347 -305 -48 -17 -52 -21 -52 -51 0 -49
26 -108 97 -215 l64 -98 -70 -98 c-81 -114 -101 -155 -101 -212 0 -56 10 -71
105 -170 57 -61 98 -116 139 -188 71 -127 96 -152 214 -216 63 -34 100 -62
113 -83 l21 -33 -792 0 -791 0 18 30 c20 34 60 63 147 105 80 39 114 76 182
197 41 74 80 127 139 188 96 99 105 114 105 173 0 53 -27 107 -112 225 l-61
84 52 73 c66 95 111 190 111 235 0 33 -3 36 -52 54 -143 51 -290 188 -363 340
-87 182 -129 434 -145 881 -5 138 -16 288 -24 335 -29 171 -84 349 -150 478
l-26 52 970 0 970 0 -26 -52z m3890 0 c-39 -76 -90 -212 -114 -303 -37 -144
-51 -256 -60 -509 -17 -452 -58 -700 -145 -882 -73 -152 -220 -289 -363 -340
-48 -17 -52 -21 -52 -51 0 -49 26 -108 97 -216 l64 -97 -60 -83 c-84 -117
-111 -171 -111 -224 0 -59 9 -74 105 -173 59 -61 98 -114 139 -188 32 -57 72
-117 89 -134 18 -18 74 -54 125 -82 63 -34 100 -62 113 -83 l21 -33 -792 0
-791 0 18 31 c19 33 43 50 142 100 86 44 119 79 187 201 41 72 82 127 139 188
96 100 105 114 105 173 0 53 -27 107 -111 224 l-60 83 64 97 c71 108 97 167
97 216 0 30 -4 34 -52 51 -82 29 -171 91 -246 171 -74 79 -120 157 -157 265
-60 176 -105 522 -105 808 0 275 -55 535 -160 759 l-39 83 970 0 969 0 -26
-52z m-1924 -2923 c0 -3 -13 -32 -30 -64 -45 -89 -107 -279 -129 -394 -24
-127 -29 -184 -41 -477 -12 -306 -38 -502 -92 -685 -59 -204 -208 -376 -396
-456 l-67 -28 2 -40 c2 -49 48 -144 112 -231 l47 -65 -82 -121 c-48 -71 -86
-138 -90 -159 -11 -62 11 -111 78 -174 67 -62 126 -142 182 -244 54 -99 84
-128 186 -182 82 -44 140 -91 140 -116 0 -5 -312 -9 -785 -9 -473 0 -785 4
-785 9 0 25 58 72 140 116 102 54 132 83 186 182 56 102 115 182 182 244 67
63 89 112 78 174 -4 21 -42 88 -90 159 l-82 121 47 65 c64 87 110 182 112 231
2 40 2 41 -52 61 -135 51 -280 185 -354 326 -84 161 -131 421 -147 817 -12
299 -17 360 -40 477 -22 115 -86 311 -129 397 -17 33 -31 63 -31 66 0 3 434 5
965 5 531 0 965 -2 965 -5z"/>
</g>
</svg>
